<svg preserveAspectRatio="xMidYMid meet" version="1.0" viewBox="171.0 18.4 158.3 463.0" xmlns="http://www.w3.org/2000/svg" xmlns:xlink="http://www.w3.org/1999/xlink" zoomAndPan="magnify" style="fill: rgb(0, 0, 0);" original_string_length="7511" width="159.1447063486828px" height="465.58291750944437px"><g id="__id2_s7x7obe7e"><path d="M314.6,43.1c0.1-0.2,0.1-0.3,0.1-0.5l-1.8-24.2H187.2l-1.8,24.2c0,0.2,0,0.3,0.1,0.5c-3.5,1.3-6.6,3.4-9,6.3 c-4.2,5.2-5.5,12.1-3.4,19c2,6.6,6.7,11.7,12.4,13.5c5.2,1.6,11.9,1.9,17.2,0.3c1.8,1,9.6,5.6,6.2,13.6c-4.1,9.7-6.9,16.2,0.6,23 l-5.3,288.4c-1.2,0.2-2.3,0.6-3,1.4c-1.5,1.4-1.7,3.6-1.7,5.2c-3.8,1.1-6.4,4.4-6.6,8.8c-0.2,3.4,1.2,7.3,4.7,9.2 c-1.2,1.3-2.8,3.4-2.7,5.8c0.1,1.8,1.1,3.5,3.1,4.9c-1.1,1.2-1.9,3.1-1.1,5.5c-1.1,0.3-2.5,0.8-3.6,2.1c-1.4,1.6-2,3.9-1.8,6.8H179 c-0.6,0-1.1,0.5-1.1,1.1v22.3c0,0.6,0.5,1.1,1.1,1.1H321c0.6,0,1.1-0.5,1.1-1.1v-22.3c0-0.6-0.5-1.1-1.1-1.1h-12.2 c0.2-2.9-0.4-5.2-1.8-6.8c-1.1-1.3-2.5-1.8-3.6-2.1c0.8-2.4-0.1-4.3-1.1-5.5c1.9-1.4,3-3.1,3.1-4.9c0.1-2.4-1.5-4.5-2.7-5.8 c3.5-1.9,4.9-5.8,4.7-9.2c-0.2-4.3-2.8-7.7-6.6-8.8c0-1.6-0.3-3.8-1.7-5.3c-0.8-0.8-1.8-1.2-3-1.4l-5.3-288.4 c7.5-6.9,4.7-13.3,0.6-23c-3.4-8,4.3-12.7,6.2-13.6c5.2,1.6,12,1.3,17.2-0.3c5.6-1.8,10.4-6.9,12.4-13.5c2.1-6.9,0.8-13.8-3.4-19 C321.2,46.6,318.1,44.5,314.6,43.1z M189.3,20.7h121.4l0.3,3.9H189L189.3,20.7z M188.8,26.8h122.4l0.3,4.2h-123L188.8,26.8z M188.3,33.2h123.3l0.4,5.8c-0.1,0-0.2-0.1-0.4-0.1H188.2c-0.1,0-0.2,0-0.4,0.1L188.3,33.2z M187.7,41.1c0.2,0.1,0.3,0.1,0.5,0.1 h123.5c0.2,0,0.4-0.1,0.5-0.1l0.1,1.3c-9.3-2.6-21.2-0.2-30.8,7h-63.1c-9.7-7.2-21.5-9.6-30.8-7L187.7,41.1z M249.7,86.6 c0.1,0,0.2,0,0.3,0h0c0,0,0,0,0,0c0.1,0,0.2,0,0.3,0c7.1-1.9,10.5-12.6,11.5-16.6c2,1.3,3.4,2.6,4.3,3.4 c-4.2,11.4-6.3,22.8-6.9,26.1h-18.4c-0.6-3.4-2.7-14.7-6.9-26.1c0.9-0.9,2.3-2.2,4.3-3.4C239.2,74.1,242.6,84.7,249.7,86.6z M240.2,68.8c2.7-1.4,6-2.6,9.8-2.6c3.8,0,7.1,1.1,9.8,2.6c-0.7,3-3.7,13.6-9.8,15.6C243.9,82.4,240.9,71.8,240.2,68.8z M261.7,67.3 C261.7,67.3,261.7,67.3,261.7,67.3c-3.1-1.8-7.1-3.3-11.7-3.3c-4.6,0-8.6,1.5-11.7,3.3c0,0,0,0,0,0c-2.3,1.3-4.1,2.8-5.3,3.9 c-3-7.5-6.9-14.8-11.9-19.5h57.7c-5,4.8-8.9,12-11.9,19.5C265.8,70.1,264,68.6,261.7,67.3z M202.4,80C202.3,80,202.3,80,202.4,80 c-4.8,1.5-11.4,1.3-16.3-0.2c-4.9-1.5-9.1-6.1-10.9-12c-1.9-6.1-0.8-12.3,3-16.9c2.1-2.5,4.8-4.4,7.9-5.6 c-7.5,6.7-9.8,15.2-6.1,23.8c2.7,6.4,7.8,10.7,13.5,11.6c0.7,0.1,1.3,0.2,2,0.2c3.4,0,6.4-1.4,8.6-3.9c3.8-4.4,5.6-10.1,4.5-14.6 c-0.7-2.8-2.5-4.9-5.1-5.9c-4.2-1.6-8.3-1.4-10.9,0.7c-1.7,1.3-3.6,3.9-3,8.8c0.6,5.3,3.8,7.2,6.3,7.2c2.8,0,5-2.1,5.3-4.7 c0.3-2.8-0.8-4-1.6-4.6c-1.5-0.9-3.3-0.3-4.2,0.2c-0.5,0.3-0.7,1-0.3,1.6c0.3,0.5,1,0.7,1.6,0.3c0.4-0.3,1.3-0.5,1.9-0.2 c0.5,0.3,0.7,1.1,0.6,2.4c-0.2,1.7-1.7,2.7-3,2.7c0,0,0,0,0,0c-1.7,0-3.6-1.4-4-5.2c-0.3-3.1,0.4-5.4,2.1-6.8c2-1.6,5.3-1.7,8.8-0.4 c1.9,0.8,3.2,2.3,3.8,4.3c0.9,3.7-0.7,8.8-4,12.6c-2.1,2.4-5.2,3.5-8.5,3c-4.9-0.8-9.3-4.6-11.7-10.3c-5.2-12.2,3.5-20.3,9.2-24.1 c0.1-0.1,0.2-0.2,0.2-0.2c8.4-1.2,18.4,1.5,26.6,8c13.2,10.5,19.3,41.1,20.5,47.7h-5.9c-3.2-20-10-34.2-20.8-43.2 c-0.4-0.3-1-0.3-1.4,0c-0.4,0.3-0.5,0.9-0.3,1.4c3.4,6.1,0.8,15.9-3.6,19.9C205.4,78.7,204,79.5,202.4,80z M213.7,61.2 c8.4,8.6,13.9,21.3,16.6,38.4h-8c-0.6-14.7-9.2-19.9-13-21.5C212.8,73.9,214.8,67.1,213.7,61.2z M205.3,81.2 c0.8-0.4,1.6-0.9,2.2-1.4c2.3,0.7,11.9,4.6,12.5,19.8h-10.4c0.4-0.9,0.8-1.8,1.2-2.8C214,89.4,209.4,83.9,205.3,81.2z M307.6,459.3 C307.6,459.3,307.6,459.3,307.6,459.3C307.6,459.3,307.6,459.3,307.6,459.3h12.3v20.1H180.1v-20.1h12.3H307.6z M305.3,451.7 c1,1.2,1.5,3,1.3,5.3H193.4c-0.2-2.4,0.2-4.1,1.2-5.3c1.4-1.6,3.5-1.6,3.6-1.6c0,0,0,0,0,0h0h103.5h0c0,0,0,0,0,0 C301.9,450.1,303.9,450.1,305.3,451.7z M199.9,443.6H250c0,0,0,0,0,0h50.1c0.7,0.5,2.1,1.9,1,4.3H198.9 C197.9,445.5,199.3,444.1,199.9,443.6z M303.1,437.6c-0.1,1.3-1.1,2.6-3,3.8H250c0,0,0,0,0,0h-50.1c-1.9-1.2-2.9-2.4-3-3.8 c-0.1-2,1.9-4,2.9-4.9h100.3C300.9,433.3,303.2,435.4,303.1,437.6z M299.5,415.9c3.9,0.7,5.5,4,5.6,6.9c0.2,3-1.2,6.5-4.7,7.6H199.6 c-3.5-1.1-4.9-4.6-4.7-7.6c0.2-2.8,1.7-6.1,5.6-6.9H299.5z M294.8,409.5C294.8,409.5,294.8,409.5,294.8,409.5 C294.8,409.5,294.8,409.5,294.8,409.5c1.1,0,2,0.3,2.6,0.8c0.8,0.8,1,2.2,1.1,3.4h-96.9c0-1.2,0.2-2.6,1.1-3.4 c0.5-0.5,1.4-0.8,2.5-0.8c0,0,0.1,0,0.1,0H250c0,0,0,0,0,0L294.8,409.5C294.8,409.5,294.8,409.5,294.8,409.5z M293.7,407.2H250 c0,0,0,0,0,0h-43.7l5.3-287.6h76.8L293.7,407.2z M289.1,117.3h-78.1c-1.6-1.5-2.7-2.9-3.3-4.4h84.8 C291.8,114.4,290.7,115.8,289.1,117.3z M293,110.6H207c-0.1-1.1-0.1-2.3,0.2-3.6h85.6C293,108.3,293.1,109.5,293,110.6z M291.2,101.8c0.4,1,0.7,2,1,2.9h-84.5c0.3-0.9,0.6-1.9,1-2.9H291.2z M290.7,78.1c-3.8,1.6-12.4,6.8-13,21.5h-8 c2.7-17.1,8.2-29.8,16.6-38.4C285.2,67.1,287.2,73.9,290.7,78.1z M289.2,96.8c0.4,1,0.8,1.9,1.2,2.8H280 c0.6-15.2,10.2-19.1,12.5-19.8c0.7,0.5,1.4,1,2.2,1.4C290.6,83.9,286,89.4,289.2,96.8z M324.8,67.8c-1.8,5.9-5.9,10.5-10.9,12 c-4.9,1.5-11.4,1.8-16.2,0.2c0,0,0,0,0,0c-1.6-0.5-3.1-1.3-4.2-2.3c-4.4-4.1-7-13.9-3.6-19.9c0.3-0.5,0.2-1.1-0.3-1.4 c-0.4-0.3-1-0.3-1.4,0c-10.8,9-17.6,23.2-20.8,43.2h-5.9c1.2-6.6,7.2-37.2,20.5-47.7c8.2-6.5,18.2-9.2,26.6-8 c0.1,0.1,0.1,0.2,0.2,0.2c5.7,3.8,14.4,11.9,9.2,24.1c-2.4,5.7-6.8,9.5-11.7,10.3c-3.3,0.5-6.5-0.6-8.5-3c-3.3-3.8-4.9-8.9-4-12.6 c0.5-2.1,1.8-3.6,3.8-4.3c3.4-1.3,6.7-1.2,8.8,0.4c1.7,1.3,2.5,3.7,2.1,6.8c-0.4,3.8-2.3,5.2-4,5.2c0,0,0,0,0,0c-1.4,0-2.9-1-3-2.7 c-0.1-1.3,0.1-2.1,0.6-2.4c0.5-0.3,1.4-0.1,1.9,0.2c0.5,0.3,1.2,0.2,1.6-0.3c0.3-0.5,0.2-1.2-0.3-1.6c-0.9-0.6-2.8-1.1-4.2-0.2 c-0.9,0.5-1.9,1.8-1.7,4.6c0.2,2.7,2.5,4.7,5.3,4.7c0,0,0,0,0.1,0c2.5,0,5.6-1.9,6.2-7.2c0.6-5-1.3-7.5-3-8.8 c-2.7-2.1-6.8-2.3-10.9-0.7c-2.6,1-4.4,3.1-5.1,5.9c-1.1,4.4,0.6,10.2,4.5,14.6c2.2,2.5,5.2,3.9,8.6,3.9c0.7,0,1.3-0.1,2-0.2 c5.7-0.9,10.7-5.2,13.5-11.6c3.7-8.6,1.5-17.1-6.1-23.8c3.1,1.2,5.8,3.1,7.9,5.6C325.6,55.5,326.6,61.6,324.8,67.8z" style="fill: rgb(173, 61, 225);"/></g><g id="__id3_s7x7obe7e"><path d="M222.1,124.2c-2.9,0-5.4,2.4-5.4,5.3l-3.4,268.8c0,1.4,0.5,2.8,1.5,3.8c1,1,2.3,1.6,3.8,1.6 c2.9,0,5.4-2.4,5.4-5.3l3.4-268.8c0-1.4-0.5-2.8-1.5-3.8C224.9,124.8,223.5,124.2,222.1,124.2z M221.8,398.3c0,1.7-1.4,3.1-3.2,3.1 c-0.8,0-1.6-0.3-2.2-0.9c-0.6-0.6-0.9-1.4-0.9-2.2l3.4-268.8c0-1.7,1.4-3.1,3.2-3.1c0.8,0,1.6,0.3,2.2,0.9c0.6,0.6,0.9,1.4,0.9,2.2 L221.8,398.3z" style="fill: rgb(173, 61, 225);"/></g><g id="__id4_s7x7obe7e"><path d="M277.9,124.2c-1.4,0-2.8,0.6-3.8,1.6c-1,1-1.5,2.4-1.5,3.8l3.4,268.8c0,3,2.5,5.3,5.4,5.3 c1.4,0,2.8-0.6,3.8-1.6c1-1,1.5-2.4,1.5-3.8l-3.4-268.8C283.3,126.6,280.8,124.2,277.9,124.2z M283.6,400.6 c-0.6,0.6-1.3,0.9-2.2,0.9c-1.7,0-3.1-1.4-3.2-3.1l-3.4-268.8c0-0.8,0.3-1.6,0.9-2.2s1.3-0.9,2.2-0.9c1.7,0,3.1,1.4,3.2,3.1 l3.4,268.8C284.5,399.2,284.2,400,283.6,400.6z" style="fill: rgb(173, 61, 225);"/></g><g id="__id5_s7x7obe7e"><path d="M239.4,124.2c-3,0-5.4,2.4-5.4,5.4l-0.5,268.8c0,1.4,0.6,2.8,1.6,3.8s2.4,1.6,3.8,1.6c3,0,5.4-2.4,5.4-5.4 l0.5-268.8c0-1.4-0.6-2.8-1.6-3.8S240.8,124.2,239.4,124.2z M242,398.4c0,1.7-1.4,3.1-3.1,3.1c-0.8,0-1.6-0.3-2.2-0.9 c-0.6-0.6-0.9-1.4-0.9-2.2l0.5-268.8c0-1.7,1.4-3.1,3.1-3.1c0.8,0,1.6,0.3,2.2,0.9c0.6,0.6,0.9,1.4,0.9,2.2L242,398.4z" style="fill: rgb(173, 61, 225);"/></g><g id="__id6_s7x7obe7e"><path d="M260.6,124.2c-1.4,0-2.8,0.6-3.8,1.6s-1.6,2.4-1.6,3.8l0.5,268.8c0,3,2.4,5.4,5.4,5.4c1.4,0,2.8-0.6,3.8-1.6 s1.6-2.4,1.6-3.8L266,129.6C266,126.6,263.6,124.2,260.6,124.2z M263.3,400.6c-0.6,0.6-1.4,0.9-2.2,0.9c-1.7,0-3.1-1.4-3.1-3.1 l-0.5-268.8c0-0.8,0.3-1.6,0.9-2.2c0.6-0.6,1.4-0.9,2.2-0.9c1.7,0,3.1,1.4,3.1,3.1l0.5,268.8C264.2,399.2,263.9,400,263.3,400.6z" style="fill: rgb(173, 61, 225);"/></g></svg>